<svg xmlns="http://www.w3.org/2000/svg" viewBox="0 0 28.664 27.956">
  <defs>
    <style>
      .cls-1 {
        fill: #7f8c8d;
        fill-rule: evenodd;
      }
    </style>
  </defs>
  <path id="Octicons-mark-github" class="cls-1" d="M14.332,0A14.332,14.332,0,0,0,9.8,27.929c.717.125.985-.3.985-.681,0-.34-.018-1.469-.018-2.669-3.6.663-4.532-.878-4.819-1.684a5.211,5.211,0,0,0-1.469-2.024c-.5-.269-1.218-.932-.018-.949a2.868,2.868,0,0,1,2.2,1.469,3.063,3.063,0,0,0,4.174,1.182,3.015,3.015,0,0,1,.914-1.917c-3.189-.358-6.521-1.594-6.521-7.076A5.578,5.578,0,0,1,6.7,9.728a5.15,5.15,0,0,1,.143-3.8s1.2-.376,3.941,1.469a13.512,13.512,0,0,1,7.166,0c2.741-1.863,3.941-1.469,3.941-1.469a5.15,5.15,0,0,1,.143,3.8A5.545,5.545,0,0,1,23.5,13.579c0,5.5-3.35,6.718-6.539,7.076a3.394,3.394,0,0,1,.967,2.651c0,1.917-.018,3.458-.018,3.941,0,.376.269.824.985.681A14.339,14.339,0,0,0,14.332,0Z" transform="translate(0 0)"/>
</svg>
