<svg xmlns="http://www.w3.org/2000/svg" viewBox="0 0 147.352 146.012">
  <defs>
    <style>
      .cls-1 {
        fill: #fbf3f3;
      }
    </style>
  </defs>
  <g id="Group_13" data-name="Group 13" transform="translate(-28 -184)">
    <g id="Group_2" data-name="Group 2" transform="translate(28 184)">
      <circle id="Ellipse_1" data-name="Ellipse 1" class="cls-1" cx="9.377" cy="9.377" r="9.377"/>
      <circle id="Ellipse_2" data-name="Ellipse 2" class="cls-1" cx="9.377" cy="9.377" r="9.377" transform="translate(26.791)"/>
      <circle id="Ellipse_3" data-name="Ellipse 3" class="cls-1" cx="9.377" cy="9.377" r="9.377" transform="translate(52.243)"/>
      <circle id="Ellipse_4" data-name="Ellipse 4" class="cls-1" cx="9.377" cy="9.377" r="9.377" transform="translate(77.695)"/>
      <circle id="Ellipse_5" data-name="Ellipse 5" class="cls-1" cx="9.377" cy="9.377" r="9.377" transform="translate(103.146)"/>
      <circle id="Ellipse_6" data-name="Ellipse 6" class="cls-1" cx="9.377" cy="9.377" r="9.377" transform="translate(128.598)"/>
    </g>
    <g id="Group_3" data-name="Group 3" transform="translate(28 209.452)">
      <circle id="Ellipse_1-2" data-name="Ellipse 1" class="cls-1" cx="9.377" cy="9.377" r="9.377" transform="translate(0 0)"/>
      <circle id="Ellipse_2-2" data-name="Ellipse 2" class="cls-1" cx="9.377" cy="9.377" r="9.377" transform="translate(26.791 0)"/>
      <circle id="Ellipse_3-2" data-name="Ellipse 3" class="cls-1" cx="9.377" cy="9.377" r="9.377" transform="translate(52.243 0)"/>
      <circle id="Ellipse_4-2" data-name="Ellipse 4" class="cls-1" cx="9.377" cy="9.377" r="9.377" transform="translate(77.695 0)"/>
      <circle id="Ellipse_5-2" data-name="Ellipse 5" class="cls-1" cx="9.377" cy="9.377" r="9.377" transform="translate(103.146 0)"/>
      <circle id="Ellipse_6-2" data-name="Ellipse 6" class="cls-1" cx="9.377" cy="9.377" r="9.377" transform="translate(128.598 0)"/>
    </g>
    <g id="Group_4" data-name="Group 4" transform="translate(28 234.903)">
      <circle id="Ellipse_1-3" data-name="Ellipse 1" class="cls-1" cx="9.377" cy="9.377" r="9.377"/>
      <circle id="Ellipse_2-3" data-name="Ellipse 2" class="cls-1" cx="9.377" cy="9.377" r="9.377" transform="translate(26.791)"/>
      <circle id="Ellipse_3-3" data-name="Ellipse 3" class="cls-1" cx="9.377" cy="9.377" r="9.377" transform="translate(52.243)"/>
      <circle id="Ellipse_4-3" data-name="Ellipse 4" class="cls-1" cx="9.377" cy="9.377" r="9.377" transform="translate(77.695)"/>
      <circle id="Ellipse_5-3" data-name="Ellipse 5" class="cls-1" cx="9.377" cy="9.377" r="9.377" transform="translate(103.146)"/>
      <circle id="Ellipse_6-3" data-name="Ellipse 6" class="cls-1" cx="9.377" cy="9.377" r="9.377" transform="translate(128.598)"/>
    </g>
    <g id="Group_5" data-name="Group 5" transform="translate(28 260.355)">
      <circle id="Ellipse_1-4" data-name="Ellipse 1" class="cls-1" cx="9.377" cy="9.377" r="9.377"/>
      <circle id="Ellipse_2-4" data-name="Ellipse 2" class="cls-1" cx="9.377" cy="9.377" r="9.377" transform="translate(26.791)"/>
      <circle id="Ellipse_3-4" data-name="Ellipse 3" class="cls-1" cx="9.377" cy="9.377" r="9.377" transform="translate(52.243)"/>
      <circle id="Ellipse_4-4" data-name="Ellipse 4" class="cls-1" cx="9.377" cy="9.377" r="9.377" transform="translate(77.695)"/>
      <circle id="Ellipse_5-4" data-name="Ellipse 5" class="cls-1" cx="9.377" cy="9.377" r="9.377" transform="translate(103.146)"/>
      <circle id="Ellipse_6-4" data-name="Ellipse 6" class="cls-1" cx="9.377" cy="9.377" r="9.377" transform="translate(128.598)"/>
    </g>
    <g id="Group_6" data-name="Group 6" transform="translate(28 285.807)">
      <circle id="Ellipse_1-5" data-name="Ellipse 1" class="cls-1" cx="9.377" cy="9.377" r="9.377" transform="translate(0 0)"/>
      <circle id="Ellipse_2-5" data-name="Ellipse 2" class="cls-1" cx="9.377" cy="9.377" r="9.377" transform="translate(26.791 0)"/>
      <circle id="Ellipse_3-5" data-name="Ellipse 3" class="cls-1" cx="9.377" cy="9.377" r="9.377" transform="translate(52.243 0)"/>
      <circle id="Ellipse_4-5" data-name="Ellipse 4" class="cls-1" cx="9.377" cy="9.377" r="9.377" transform="translate(77.695 0)"/>
      <circle id="Ellipse_5-5" data-name="Ellipse 5" class="cls-1" cx="9.377" cy="9.377" r="9.377" transform="translate(103.146 0)"/>
      <circle id="Ellipse_6-5" data-name="Ellipse 6" class="cls-1" cx="9.377" cy="9.377" r="9.377" transform="translate(128.598 0)"/>
    </g>
    <g id="Group_7" data-name="Group 7" transform="translate(28 311.258)">
      <circle id="Ellipse_1-6" data-name="Ellipse 1" class="cls-1" cx="9.377" cy="9.377" r="9.377"/>
      <circle id="Ellipse_2-6" data-name="Ellipse 2" class="cls-1" cx="9.377" cy="9.377" r="9.377" transform="translate(26.791)"/>
      <circle id="Ellipse_3-6" data-name="Ellipse 3" class="cls-1" cx="9.377" cy="9.377" r="9.377" transform="translate(52.243)"/>
      <circle id="Ellipse_4-6" data-name="Ellipse 4" class="cls-1" cx="9.377" cy="9.377" r="9.377" transform="translate(77.695)"/>
      <circle id="Ellipse_5-6" data-name="Ellipse 5" class="cls-1" cx="9.377" cy="9.377" r="9.377" transform="translate(103.146)"/>
      <circle id="Ellipse_6-6" data-name="Ellipse 6" class="cls-1" cx="9.377" cy="9.377" r="9.377" transform="translate(128.598)"/>
    </g>
  </g>
</svg>
