<svg xmlns="http://www.w3.org/2000/svg" viewBox="0 0 194.993 194.99">
  <g id="logo" transform="translate(-355.085 -335.139)">
    <rect id="Rectangle_7" data-name="Rectangle 7" width="194.99" height="194.99" transform="translate(355.088 335.139)" fill="#fff"/>
    <path id="Rectangle_1" data-name="Rectangle 1" d="M3,0H191.986a3,3,0,0,1,3,3V35.626H0V3A3,3,0,0,1,3,0Z" transform="translate(355.085 335.142)" fill="#0eca2d"/>
    <path id="Path_2" data-name="Path 2" d="M29.326,0H20.491V-35.492q0-6.354.3-10.076-.865.9-2.124,1.993t-8.441,6.918L5.79-42.26,21.957-54.968h7.369ZM65.909-55.682q7.82,0,12.37,3.591a11.612,11.612,0,0,1,4.549,9.606q0,8.459-10.151,13.46,6.467,3.233,9.193,6.805a12.819,12.819,0,0,1,2.726,7.971,13.387,13.387,0,0,1-5,10.9q-5,4.1-13.535,4.1-8.948,0-13.874-3.835T47.26-13.949A14.015,14.015,0,0,1,49.836-22.2q2.575-3.666,8.441-6.523A21.227,21.227,0,0,1,51.1-35.079a13.646,13.646,0,0,1-2.143-7.52,11.339,11.339,0,0,1,4.7-9.531Q58.352-55.682,65.909-55.682ZM55.72-14.25a7.288,7.288,0,0,0,2.745,6.072,11.717,11.717,0,0,0,7.444,2.162q4.85,0,7.538-2.237a7.484,7.484,0,0,0,2.688-6.072,7.779,7.779,0,0,0-2.481-5.564,23.4,23.4,0,0,0-7.52-4.662l-1.09-.489A19.346,19.346,0,0,0,57.9-20.246,9.092,9.092,0,0,0,55.72-14.25ZM65.833-48.877a9.312,9.312,0,0,0-6.053,1.861,6.166,6.166,0,0,0-2.293,5.057,7.278,7.278,0,0,0,.827,3.5,9.123,9.123,0,0,0,2.406,2.8,28.884,28.884,0,0,0,5.339,3.027,17.727,17.727,0,0,0,6.373-4.192,7.7,7.7,0,0,0,1.861-5.132,6.146,6.146,0,0,0-2.312-5.057A9.514,9.514,0,0,0,65.833-48.877Z" transform="translate(407.17 476.278)" fill="#c6c6c6"/>
    <path id="Path_3" data-name="Path 3" d="M9.464-4.653A5.076,5.076,0,0,1,8.331-1.13,4.1,4.1,0,0,1,5.123.127,4.126,4.126,0,0,1,1.895-1.12,5.108,5.108,0,0,1,.768-4.666,5.029,5.029,0,0,1,1.9-8.195,4.175,4.175,0,0,1,5.135-9.426a4.091,4.091,0,0,1,3.2,1.25A5.071,5.071,0,0,1,9.464-4.653Zm-7.084,0a4.161,4.161,0,0,0,.692,2.6,2.443,2.443,0,0,0,2.05.885,2.438,2.438,0,0,0,2.041-.876,4.169,4.169,0,0,0,.689-2.609,4.178,4.178,0,0,0-.682-2.59,2.413,2.413,0,0,0-2.034-.882,2.463,2.463,0,0,0-2.06.882A4.121,4.121,0,0,0,2.38-4.653ZM14.13.127A3.074,3.074,0,0,1,11.708-.8a3.885,3.885,0,0,1-.828-2.669A3.907,3.907,0,0,1,11.746-6.2a3.214,3.214,0,0,1,2.5-.952,4.693,4.693,0,0,1,2,.413l-.451,1.2A4.518,4.518,0,0,0,14.238-5.9q-1.822,0-1.822,2.418a2.9,2.9,0,0,0,.454,1.774,1.571,1.571,0,0,0,1.33.594,3.815,3.815,0,0,0,1.885-.5v1.3a2.946,2.946,0,0,1-.854.336A5.123,5.123,0,0,1,14.13.127Zm6.221-1.206a3.628,3.628,0,0,0,1.092-.171V-.127A3.011,3.011,0,0,1,20.8.054,4.4,4.4,0,0,1,20,.127q-2.12,0-2.12-2.234V-5.891h-.958v-.66L17.945-7.1l.508-1.485h.92v1.562h2v1.13h-2v3.758a1.054,1.054,0,0,0,.27.8A.983.983,0,0,0,20.351-1.079Zm8.722-2.444A3.832,3.832,0,0,1,28.19-.838a3.161,3.161,0,0,1-2.457.965,3.366,3.366,0,0,1-1.739-.444,2.933,2.933,0,0,1-1.162-1.276,4.345,4.345,0,0,1-.406-1.93A3.806,3.806,0,0,1,23.3-6.189a3.176,3.176,0,0,1,2.469-.958,3.093,3.093,0,0,1,2.412.981A3.788,3.788,0,0,1,29.072-3.523Zm-5.11,0q0,2.431,1.8,2.431,1.777,0,1.777-2.431,0-2.406-1.79-2.406a1.526,1.526,0,0,0-1.362.622A3.166,3.166,0,0,0,23.962-3.523Zm10.41-3.625A2.437,2.437,0,0,1,36.42-6.2a4.293,4.293,0,0,1,.733,2.672A4.307,4.307,0,0,1,36.41-.835a2.46,2.46,0,0,1-2.063.962,2.459,2.459,0,0,1-2.069-.958h-.1L31.9,0H30.786V-9.877h1.492v2.349q0,.26-.025.774t-.038.654h.063A2.369,2.369,0,0,1,34.373-7.147Zm-.387,1.219a1.516,1.516,0,0,0-1.3.53,3.084,3.084,0,0,0-.409,1.774v.1a3.284,3.284,0,0,0,.406,1.857,1.511,1.511,0,0,0,1.327.574,1.345,1.345,0,0,0,1.2-.628,3.333,3.333,0,0,0,.409-1.815Q35.623-5.929,33.985-5.929ZM41.952.127A3.4,3.4,0,0,1,39.39-.828a3.627,3.627,0,0,1-.924-2.631,3.979,3.979,0,0,1,.857-2.7,2.96,2.96,0,0,1,2.355-.984,2.893,2.893,0,0,1,2.2.844,3.226,3.226,0,0,1,.806,2.323v.806H40A2.306,2.306,0,0,0,40.555-1.6a1.923,1.923,0,0,0,1.466.549,5.413,5.413,0,0,0,1.158-.117,6.072,6.072,0,0,0,1.152-.39V-.349a4.58,4.58,0,0,1-1.1.368A6.773,6.773,0,0,1,41.952.127Zm-.273-6.145a1.5,1.5,0,0,0-1.139.451,2.148,2.148,0,0,0-.511,1.314h3.187A1.943,1.943,0,0,0,42.8-5.57,1.433,1.433,0,0,0,41.679-6.018Zm8.258-1.13a3.591,3.591,0,0,1,.743.063l-.146,1.39a2.819,2.819,0,0,0-.66-.076,1.91,1.91,0,0,0-1.45.584,2.111,2.111,0,0,0-.555,1.517V0H46.376V-7.021h1.168l.2,1.238h.076a2.782,2.782,0,0,1,.911-1A2.165,2.165,0,0,1,49.937-7.147Z" transform="translate(427.17 358.278)" fill="#fff"/>
  </g>
</svg>
