<svg xmlns="http://www.w3.org/2000/svg" viewBox="0 0 194.993 194.99">
  <defs>
    <style>
      .lsvg-p1 {
        fill: #fff;
      }

      .lsvg-p2 {
        fill: #0eca2d;
      }

      .lsvg-p3 {
        fill: #c6c6c6;
      }
    </style>
  </defs>
  <g transform="translate(-355.085 -335.139)">
    <rect data-name="Rectangle 7" class="lsvg-p1" width="194.99" height="194.99" transform="translate(355.088 335.139)"/>
    <path data-name="Rectangle 1" class="lsvg-p2" d="M3,0H191.986a3,3,0,0,1,3,3V35.626a0,0,0,0,1,0,0H0a0,0,0,0,1,0,0V3A3,3,0,0,1,3,0Z" transform="translate(355.085 335.142)"/>
    <path data-name="Path 3" class="lsvg-p1" d="M6.307.1H6.164A3.2,3.2,0,0,1,5.6.055a1.189,1.189,0,0,1-.539-.273,4.988,4.988,0,0,1-.338,1.65A3.633,3.633,0,0,1,3.9,2.686a3.6,3.6,0,0,1-1.272.8,4.758,4.758,0,0,1-1.684.28H0V2.27H.941a4.259,4.259,0,0,0,1.176-.143,1.912,1.912,0,0,0,.815-.453A1.889,1.889,0,0,0,3.409.863,4.112,4.112,0,0,0,3.566-.355V-4.609H5.059v2.141a.963.963,0,0,0,.147.559,1.123,1.123,0,0,0,.338.327,1.184,1.184,0,0,0,.372.153,1.478,1.478,0,0,0,.249.038h.143Zm4.159-5.925a3.355,3.355,0,0,1,1.1.167,2.208,2.208,0,0,1,.822.491,2.118,2.118,0,0,1,.515.794,3.042,3.042,0,0,1,.177,1.077,2.8,2.8,0,0,1-.112.76,2.241,2.241,0,0,1-.419.784,3.42,3.42,0,0,1-.856.733,5.726,5.726,0,0,1-1.415.607h.007a4.665,4.665,0,0,1-.61.16q-.331.065-.617.112a2.517,2.517,0,0,0,.327.764,4.662,4.662,0,0,0,.559.723,5.187,5.187,0,0,0,.7.62,4.315,4.315,0,0,0,.747.45,2.479,2.479,0,0,1-.109-.259q-.055-.15-.1-.317t-.072-.331a1.8,1.8,0,0,1-.027-.293,2.933,2.933,0,0,1,.034-.447,1.926,1.926,0,0,1,.109-.412,2.7,2.7,0,0,1,.406-.719,2.734,2.734,0,0,1,.59-.556,2.66,2.66,0,0,1,.726-.355,2.734,2.734,0,0,1,.822-.123h1.3V.1H13.711a1.206,1.206,0,0,0-.7.208,1.173,1.173,0,0,0-.44.569,1.309,1.309,0,0,0-.082.45,2.142,2.142,0,0,0,.133.716,1.644,1.644,0,0,0,.481.682l-.464,1.132a5.191,5.191,0,0,1-1.865-.324A5.282,5.282,0,0,1,9.283,2.68a4.805,4.805,0,0,1-1.06-1.217A4.319,4.319,0,0,1,7.664.048q-.409.034-.818.044T6.068.1V-1.391q.286,0,.689-.01t.852-.044a13.706,13.706,0,0,1,.14-1.449,5.9,5.9,0,0,1,.283-1.122,3.169,3.169,0,0,1,.5-.927,2.418,2.418,0,0,1,.62-.549,2.12,2.12,0,0,1,.668-.262A3.276,3.276,0,0,1,10.466-5.823Zm0,1.486a1.4,1.4,0,0,0-.46.082.924.924,0,0,0-.433.358,2.647,2.647,0,0,0-.348.811,6.894,6.894,0,0,0-.2,1.442q.2-.034.433-.078a3.093,3.093,0,0,0,.4-.1,5,5,0,0,0,1.006-.419,2.814,2.814,0,0,0,.58-.426,1.167,1.167,0,0,0,.266-.372.785.785,0,0,0,.065-.263.99.99,0,0,0-.109-.484.915.915,0,0,0-.29-.32,1.224,1.224,0,0,0-.419-.177A2.2,2.2,0,0,0,10.466-4.336Zm9.5,3.273a1.9,1.9,0,0,0,.208-.017.517.517,0,0,0,.283-.15,1.1,1.1,0,0,0,.252-.436,2.743,2.743,0,0,0,.109-.883,1.9,1.9,0,0,0-.02-.222,2.146,2.146,0,0,0-.075-.334,2.479,2.479,0,0,0-.15-.375,1.455,1.455,0,0,0-.245-.355,1.188,1.188,0,0,0-.368-.263,1.194,1.194,0,0,0-.511-.1.936.936,0,0,0-.47.112,1.21,1.21,0,0,0-.348.3,1.9,1.9,0,0,0-.256.43q-.106.242-.191.5t-.157.518q-.072.259-.147.477.266.15.552.293t.563.256a4.664,4.664,0,0,0,.525.181A1.71,1.71,0,0,0,19.964-1.064Zm-.518-4.623a2.669,2.669,0,0,1,1.207.256,2.48,2.48,0,0,1,.852.689,2.939,2.939,0,0,1,.508,1,4.2,4.2,0,0,1,.167,1.19,5.013,5.013,0,0,1-.119,1.176,3.125,3.125,0,0,1-.31.818,1.845,1.845,0,0,1-.433.525,2.032,2.032,0,0,1-.487.3A1.888,1.888,0,0,1,20.356.4a3.009,3.009,0,0,1-.392.031,3.1,3.1,0,0,1-.641-.065A3.827,3.827,0,0,1,18.7.174q-.317-.126-.665-.3t-.764-.4a1.866,1.866,0,0,1-.648.481A1.885,1.885,0,0,1,15.866.1h-1.05L14.8-1.391h1.009a.453.453,0,0,0,.307-.113,1.057,1.057,0,0,0,.232-.3,2.828,2.828,0,0,0,.188-.45q.085-.259.167-.559.089-.32.2-.655a5.76,5.76,0,0,1,.259-.655,3.717,3.717,0,0,1,.355-.6,2.478,2.478,0,0,1,.477-.5,2.122,2.122,0,0,1,.631-.338A2.529,2.529,0,0,1,19.445-5.686Z" transform="translate(438.777 353.976)"/>
    <path data-name="Path 2" class="lsvg-p3" d="M39.24-58.48q0,.08.12.78t.24,1.84q.12,1.14.2,2.58.04,1,.04,2.04v1.04q-.16,9.24-4.36,14.16v-.04A13.635,13.635,0,0,1,24.4-31.16a20.9,20.9,0,0,1-3.46-.26,15.222,15.222,0,0,1-3.06-.86l.32,2.2q.48,3.76.78,7.74t.48,7.96q.18,3.98.24,7.84T19.76.8H11.8q0-6.36-.12-12.66T11.04-24.1q-.52-5.94-1.54-11.36a54.7,54.7,0,0,0-2.82-9.98q-.84-2.16-1.8-4.12T2.72-53.6L9.4-57.84q.64,1.04,1.18,2.1t1.08,2.2q.54,1.14,1.1,2.42T14-48.36q.92,2.12,1.82,3.82A13.171,13.171,0,0,0,17.9-41.6a8.16,8.16,0,0,0,2.72,1.9,9.6,9.6,0,0,0,3.78.66,6.1,6.1,0,0,0,5-2.04,7.371,7.371,0,0,0,1.24-2.06,16.083,16.083,0,0,0,.78-2.5,19.945,19.945,0,0,0,.42-2.72q.12-1.4.12-2.72a29.7,29.7,0,0,0-.18-3.32q-.18-1.6-.38-2.64ZM49.52-1.8q.2-.64.76-2.16t1.56-3.72q1-2.2,2.48-4.98t3.52-5.94q2.04-3.12,4.36-6a52.716,52.716,0,0,1,4.72-5.16,21.211,21.211,0,0,1-5.5-1.46,15.128,15.128,0,0,1-4.34-2.74,11.713,11.713,0,0,1-2.86-4.02,13.14,13.14,0,0,1-1.02-5.3A14.358,14.358,0,0,1,53.96-48a15.644,15.644,0,0,1,2.1-4.06,17.409,17.409,0,0,1,3.16-3.34,20.4,20.4,0,0,1,3.9-2.5,20.917,20.917,0,0,1,4.32-1.56A19.056,19.056,0,0,1,71.92-60a22.675,22.675,0,0,1,11.6,3.36l-4.04,6.88a14.859,14.859,0,0,0-3.94-1.8,13.717,13.717,0,0,0-3.62-.52,12.04,12.04,0,0,0-3.9.66,12.053,12.053,0,0,0-3.46,1.82,9.674,9.674,0,0,0-2.48,2.78,6.892,6.892,0,0,0-.96,3.58,4.488,4.488,0,0,0,.74,2.6,5.866,5.866,0,0,0,1.9,1.76,9.016,9.016,0,0,0,2.54,1,11.768,11.768,0,0,0,2.66.32h.52a28.089,28.089,0,0,0,3.4-.22q1.8-.22,3.64-.58t3.44-.8q1.6-.44,2.76-.8l1.86-.6q.74-.24,1.18-.36l2.32,7.56-2.88.96a30.189,30.189,0,0,0-6.9,3.3,39.627,39.627,0,0,0-5.84,4.6,45.632,45.632,0,0,0-4.82,5.38q-2.16,2.84-3.86,5.6t-2.94,5.3Q59.6-5.68,58.78-3.74T57.54-.62Q57.12.56,57.08.6Z" transform="translate(405.763 476.541)"/>
  </g>
</svg>
